<svg width="64" height="64" viewBox="0 0 64 64" fill="none" xmlns="http://www.w3.org/2000/svg">
<path fill-rule="evenodd" clip-rule="evenodd" d="M8.35 8.50024H24.3109L30.9397 12.9792C31.1025 13.0933 31.289 13.176 31.4904 13.2182C31.5967 13.2406 31.7045 13.2512 31.8118 13.2502H55.26C55.3498 13.2502 55.5741 13.3124 55.8086 13.5489C56.0423 13.7846 56.11 14.0165 56.11 14.1202V33.1202C56.11 33.9487 56.7816 34.6202 57.61 34.6202C58.4384 34.6202 59.11 33.9487 59.11 33.1202V14.1202C59.11 13.044 58.5877 12.0909 57.9389 11.4366C57.291 10.7831 56.3402 10.2502 55.26 10.2502H32.2594L25.6209 5.76477C25.5309 5.70268 25.4338 5.65016 25.3311 5.6087C25.1415 5.53205 24.9419 5.49668 24.7443 5.50024H8.35C6.00237 5.50024 4.5 7.47541 4.5 9.37024V47.3702C4.5 49.2792 6.00618 51.2402 8.35 51.2402H31.8C32.6284 51.2402 33.3 50.5687 33.3 49.7402C33.3 48.9118 32.6284 48.2402 31.8 48.2402H8.35C7.87382 48.2402 7.5 47.8413 7.5 47.3702V9.37024C7.5 9.16805 7.58559 8.9364 7.74786 8.76081C7.89579 8.60074 8.09277 8.50024 8.35 8.50024ZM50.9301 38.9257C49.1743 38.334 47.2757 38.334 45.5199 38.9257C43.7643 39.5174 42.249 40.668 41.1994 42.2006C40.1601 43.7182 39.6328 45.5309 39.6892 47.3702C39.6328 49.2094 40.1601 51.0221 41.1994 52.5397C42.249 54.0723 43.7643 55.2229 45.5199 55.8146C47.2757 56.4064 49.1743 56.4064 50.9301 55.8146C51.7607 55.5347 52.5375 55.1297 53.2366 54.6183L56.5493 57.931C57.1351 58.5168 58.0849 58.5168 58.6707 57.931C59.2565 57.3452 59.2565 56.3954 58.6707 55.8097L55.3111 52.4501C56.3104 50.951 56.8161 49.1734 56.7609 47.3702C56.8172 45.5309 56.2899 43.7182 55.2506 42.2006C54.201 40.668 52.6857 39.5174 50.9301 38.9257ZM46.4781 41.7686C47.6123 41.3864 48.8377 41.3864 49.9719 41.7686C51.1063 42.1509 52.091 42.8963 52.7754 43.8957C53.4596 44.8949 53.8062 46.0949 53.761 47.3147C53.7597 47.3517 53.7597 47.3887 53.761 47.4257C53.8062 48.6454 53.4596 49.8455 52.7754 50.8446C52.091 51.844 51.1063 52.5894 49.9719 52.9717C48.8377 53.354 47.6123 53.354 46.4781 52.9717C45.3437 52.5894 44.359 51.844 43.6746 50.8446C42.9904 49.8455 42.6438 48.6454 42.689 47.4257C42.6903 47.3887 42.6903 47.3517 42.689 47.3147C42.6438 46.0949 42.9904 44.8949 43.6746 43.8957C44.359 42.8963 45.3437 42.1509 46.4781 41.7686ZM25.7008 38.2811L25.6964 38.2852C25.1122 38.865 24.1686 38.8658 23.5834 38.285C22.9954 37.7015 22.9918 36.7517 23.5753 36.1637L24.6342 37.2146C23.5753 36.1637 23.5758 36.1632 23.5764 36.1626L23.5775 36.1615L23.5799 36.1591L23.5856 36.1534L23.5999 36.1394C23.6108 36.1287 23.6244 36.1157 23.6406 36.1003C23.6732 36.0695 23.7166 36.0296 23.7708 35.9818C23.8792 35.8862 24.0312 35.759 24.2269 35.6111C24.618 35.3155 25.1856 34.9358 25.9301 34.5607C27.4241 33.808 29.6188 33.0803 32.5 33.0803C35.3812 33.0803 37.5759 33.808 39.0699 34.5607C39.8144 34.9358 40.382 35.3155 40.7731 35.6111C40.9688 35.759 41.1208 35.8862 41.2292 35.9818C41.2834 36.0296 41.3268 36.0695 41.3594 36.1003C41.3756 36.1157 41.3892 36.1287 41.4001 36.1394L41.4144 36.1534L41.4201 36.1591L41.4225 36.1615L41.4236 36.1626C41.4242 36.1632 41.4247 36.1637 40.398 37.1826L41.4247 36.1637C42.0082 36.7517 42.0046 37.7015 41.4166 38.285C40.8314 38.8658 39.8878 38.865 39.3036 38.2852L39.2992 38.2811C39.2945 38.2766 39.2866 38.2692 39.2757 38.2593C39.2673 38.2517 39.2571 38.2426 39.2452 38.232C39.1898 38.1832 39.0962 38.1041 38.9644 38.0045C38.7005 37.8051 38.2856 37.5248 37.7201 37.2399C36.5941 36.6726 34.8588 36.0803 32.5 36.0803C30.1412 36.0803 28.4059 36.6726 27.2799 37.2399C26.7144 37.5248 26.2995 37.8051 26.0356 38.0045C25.9038 38.1041 25.8102 38.1832 25.7548 38.232C25.7272 38.2564 25.7091 38.2732 25.7008 38.2811ZM40.36 37.2203C39.2953 38.2769 39.2958 38.2775 39.2963 38.278L39.2953 38.2769L40.36 37.2203ZM24.64 24.0002H29.88V29.2902H24.64V24.0002ZM40.36 24.0002H35.12V29.2902H40.36V24.0002Z" fill="#97A0B6"/>
</svg>
