<svg xmlns="http://www.w3.org/2000/svg" version="1.1" width="120" height="30"><polyline points=" 0,29.108940084335824 0.4166666666666667,29.11615788277562 0.8333333333333334,28.820417962769714 1.25,28.59887358580954 1.6666666666666667,28.698695670584307 2.0833333333333335,29.104597228233096 2.5,29.230639234347613 2.916666666666667,29.48582886642122 3.3333333333333335,29.72007130239322 3.75,29.637666968594253 4.166666666666667,29.507870413553093 4.583333333333334,29.495938608606156 5,29.02720121284717 5.416666666666667,28.95327371201499 5.833333333333334,29.131630573580303 6.25,29.220642266771748 6.666666666666667,28.947430069447332 7.083333333333334,29.172643483030274 7.5,29.091835948619416 7.916666666666667,29.241833811544822 8.333333333333334,29.31447465652672 8.75,29.176703103581715 9.166666666666668,29.846063066587742 9.583333333333334,29.810031736014253 10,29.638418813702938 10.416666666666668,29.594514737056265 10.833333333333334,29.811412529354353 11.25,29.875763760520876 11.666666666666668,29.899417198719267 12.083333333333334,30 12.5,29.910656266337604 12.916666666666668,29.89511095655003 13.333333333333334,29.674502702344203 13.75,29.611973798466817 14.166666666666668,29.590651606384807 14.583333333333334,29.472730289501943 15,28.852189479421696 15.416666666666668,28.904146541858903 15.833333333333334,28.89429744139646 16.25,28.66918320715231 16.666666666666668,28.350102539518453 17.083333333333336,27.97635952667446 17.5,28.02914519897044 17.916666666666668,28.26063192335425 18.333333333333336,27.986687799548488 18.75,27.95092845280187 19.166666666666668,26.039814316390306 19.583333333333336,25.773206293238886 20,25.651844141336532 20.416666666666668,25.461434740279394 20.833333333333336,24.917661049208686 21.25,25.007915007480236 21.666666666666668,24.809572791332556 22.083333333333336,24.40959246148492 22.5,24.220075032554593 22.916666666666668,24.513388595145255 23.333333333333336,25.29843417164997 23.75,25.277573563701267 24.166666666666668,24.880364146320712 24.583333333333336,24.349483805650856 25,24.565528097833948 25.416666666666668,24.571871680648684 25.833333333333336,24.625965872759693 26.25,24.796409696070754 26.666666666666668,24.99986217801693 27.083333333333336,25.286734781644935 27.5,25.38287091651428 27.916666666666668,25.620467267875 28.333333333333336,25.64723372334159 28.75,25.76459048849258 29.166666666666668,25.830040632840337 29.583333333333336,25.83885957956069 30,25.499649112918643 30.416666666666668,23.26094137648112 30.833333333333336,23.405874789486383 31.25,23.615779891087683 31.666666666666668,24.085737046831373 32.083333333333336,23.57070838601428 32.5,22.88913589794671 32.91666666666667,23.22864045735101 33.333333333333336,23.364327530985207 33.75,23.49269732153858 34.16666666666667,23.889956110700165 34.583333333333336,23.931332408520614 35,23.946731734852005 35.41666666666667,24.142620345428437 35.833333333333336,24.145226057182967 36.25,23.874221950337216 36.66666666666667,23.311878394212144 37.083333333333336,24.598617635065754 37.5,26.962831358523157 37.91666666666667,27.280521639588507 38.333333333333336,27.292225076120445 38.75,26.12947029693664 39.16666666666667,26.774007465694755 39.583333333333336,26.672931133163594 40,26.341310735168136 40.41666666666667,26.650557911915634 40.833333333333336,26.99138546284966 41.25,26.909315812618626 41.66666666666667,27.478300061374732 42.083333333333336,26.987540670213704 42.5,26.275627921197863 42.91666666666667,24.259302333600427 43.333333333333336,23.760541867440196 43.75,23.850202809363545 44.16666666666667,21.266547053187622 44.583333333333336,21.172846950886484 45,21.389697392307752 45.41666666666667,20.092464446389023 45.833333333333336,19.685533277578426 46.25,19.241066842812664 46.66666666666667,19.03859068647745 47.083333333333336,19.31856838676844 47.5,17.79481487498677 47.91666666666667,15.6343703685404 48.333333333333336,15.238826891944049 48.75,15.235851561251954 49.16666666666667,14.835519679119528 49.583333333333336,15.11825626620422 50,15.155003647658974 50.41666666666667,15.568643506907074 50.833333333333336,14.885852392670417 51.25,14.72572902536998 51.66666666666667,14.50808848213869 52.083333333333336,15.033366108501736 52.5,15.22505321812445 52.91666666666667,14.782050766943284 53.333333333333336,14.967388931079007 53.75,14.892175442427668 54.16666666666667,14.40661164173546 54.583333333333336,12.6082087691797 55,13.006401522942603 55.41666666666667,13.695074576952475 55.833333333333336,14.295263829914493 56.25,14.569019453552434 56.66666666666667,13.79349081204176 57.083333333333336,13.801244285220378 57.5,13.7068047019336 57.91666666666667,12.598277238370489 58.333333333333336,9.180947377257688 58.75,9.903764430043292 59.16666666666667,9.299348000470385 59.583333333333336,6.620508620029938 60,1.3352727957498338 60.41666666666667,1.3930394237433852 60.833333333333336,2.1153846531873626 61.25,3.5470560389842483 61.66666666666667,3.1236995121680877 62.083333333333336,3.0744741540902965 62.5,4.874394319906379 62.91666666666667,4.94496482827336 63.333333333333336,5.431981994725163 63.75,5.345332600846287 64.16666666666667,5.22082046970063 64.58333333333334,3.7553165616105844 65,3.7878782643541165 65.41666666666667,3.3726498553911988 65.83333333333334,3.582108279192692 66.25,3.7202206266549034 66.66666666666667,5.6480869226196795 67.08333333333334,6.6159084066293055 67.5,7.000204248590602 67.91666666666667,5.966640364417593 68.33333333333334,7.040414115746746 68.75,6.010468840382341 69.16666666666667,5.3567054669297995 69.58333333333334,5.2514381809301796 70,4.796465758208878 70.41666666666667,3.6653080748894915 70.83333333333334,4.130389391842982 71.25,0 71.66666666666667,0.43895142285420974 72.08333333333334,0.8354695279933431 72.5,2.0453353347128136 72.91666666666667,3.6930349949743224 73.33333333333334,3.4222827133506506 73.75,3.83587348188048 74.16666666666667,3.719847590786312 74.58333333333334,3.313826344692636 75,3.357862007390313 75.41666666666667,3.1884507658465395 75.83333333333334,3.1402563303305477 76.25,2.612154374441868 76.66666666666667,2.090250842949011 77.08333333333334,2.842775709832111 77.5,5.62261278083691 77.91666666666667,6.089896158551504 78.33333333333334,3.376858957682355 78.75,3.4815850273606905 79.16666666666667,5.523833892524568 79.58333333333334,5.7522500742404326 80,3.9191879046371376 80.41666666666667,3.54737422595176 80.83333333333334,4.421913979823707 81.25,4.700581617467282 81.66666666666667,3.4295494705025753 82.08333333333334,2.8882513928128084 82.5,1.5256754783579396 82.91666666666667,2.585504285836233 83.33333333333334,3.92683168574478 83.75,3.679578260302332 84.16666666666667,4.619666342203406 84.58333333333334,4.706955356423229 85,4.894979333022711 85.41666666666667,4.873345468014758 85.83333333333334,4.377096547866081 86.25,5.647270891843149 86.66666666666667,7.27918352863437 87.08333333333334,7.4748979819766035 87.5,7.9514108511152735 87.91666666666667,7.091532171741289 88.33333333333334,5.962765408265376 88.75,6.352177141419016 89.16666666666667,7.105618412324617 89.58333333333334,6.137809976727215 90,5.174369307578765 90.41666666666667,6.711281878931096 90.83333333333334,6.996764229062833 91.25,7.4999343198523505 91.66666666666667,6.845432075428985 92.08333333333334,7.104134796690438 92.5,6.742718299703689 92.91666666666667,6.609495045073874 93.33333333333334,5.509341056706891 93.75,5.602426858686144 94.16666666666667,5.747902996922541 94.58333333333334,6.917120197654111 95,6.842368202087062 95.41666666666667,7.076063745000987 95.83333333333334,7.037667918235034 96.25,7.498930627967265 96.66666666666667,8.033968020202952 97.08333333333334,8.155472772492658 97.5,8.705191912583363 97.91666666666667,8.369990833363222 98.33333333333334,8.621651799284304 98.75,8.269664754732442 99.16666666666667,7.707616574065593 99.58333333333334,7.595941061356662 100,7.667494235013635 100.41666666666667,7.4278936498060055 100.83333333333334,7.781995240625395 101.25,9.855557650263393 101.66666666666667,10.602083772838501 102.08333333333334,10.50516317765888 102.5,8.86786827605522 102.91666666666667,8.65878652095941 103.33333333333334,8.103467846709037 103.75,8.563125195360772 104.16666666666667,8.44495752092832 104.58333333333334,8.343839729462204 105,8.50287740905626 105.41666666666667,7.831621487976911 105.83333333333334,7.64647879898429 106.25,7.250056362422377 106.66666666666667,7.501423460344672 107.08333333333334,7.666029541244047 107.5,7.5192934092892365 107.91666666666667,7.082130398600047 108.33333333333334,6.88067922423032 108.75,6.952641026747564 109.16666666666667,7.326853485306419 109.58333333333334,7.344230675953682 110,7.634758837735422 110.41666666666667,7.595657784576524 110.83333333333334,7.222861197293369 111.25,5.6773090934087485 111.66666666666667,6.0558268137301 112.08333333333334,5.926348494774402 112.5,6.032595578768067 112.91666666666667,6.376166046611917 113.33333333333334,6.862260760178042 113.75,6.141393605403238 114.16666666666667,5.336282526198914 114.58333333333334,5.515708082408562 115,5.756830013051889 115.41666666666667,6.065091171877743 115.83333333333334,5.81584607090905 116.25,5.787090013718885 116.66666666666667,6.614173966085108 117.08333333333334,6.464674325548856 117.5,6.497855130496156 117.91666666666667,6.661143045937987 118.33333333333334,6.6388663392087 118.75,7.264641119349427 119.16666666666667,6.914903523949121 119.58333333333334,6.466120393317766" stroke="#00A68C" stroke-linecap="round" stroke-width="1.4" fill="none"></polyline></svg>