<?xml version="1.0" encoding="iso-8859-1"?>
<!-- Generator: Adobe Illustrator 16.0.0, SVG Export Plug-In . SVG Version: 6.00 Build 0)  -->
<!DOCTYPE svg PUBLIC "-//W3C//DTD SVG 1.1//EN" "http://www.w3.org/Graphics/SVG/1.1/DTD/svg11.dtd">
<svg version="1.1" id="Capa_1" xmlns="http://www.w3.org/2000/svg" xmlns:xlink="http://www.w3.org/1999/xlink" x="0px" y="0px"
	 width="67.154px" height="67.154px" viewBox="0 0 67.154 67.154" style="enable-background:new 0 0 67.154 67.154;"
	 xml:space="preserve">
<g>
	<path d="M48.551,25.425V13.643C48.551,6.12,41.831,0,33.58,0c-8.258,0-14.976,6.123-14.976,13.643v11.782h-5.615V40.48
		c0,10.104,8.367,18.395,18.958,19.179v4.233H22.19v3.262h9.757h3.261h9.758v-3.262h-9.758v-4.233
		c10.59-0.784,18.957-9.074,18.957-19.179V25.425H48.551z M45.289,13.643v11.782h-3.554V6.218
		C43.921,8.108,45.289,10.73,45.289,13.643z M21.865,28.691h23.417V40.48c0,5.721-5.251,10.378-11.708,10.378
		c-6.461,0-11.712-4.657-11.712-10.378V28.691H21.865z M28.887,4.146c0.953-0.375,1.99-0.604,3.059-0.738v22.017h-3.059V4.146z
		 M35.208,3.408c1.151,0.145,2.248,0.416,3.263,0.831v21.184h-3.263V3.408z M21.865,13.643c0-2.994,1.459-5.677,3.753-7.572v19.354
		h-3.753V13.643z M50.905,40.48c0,8.818-7.773,15.994-17.328,15.994c-9.555,0-17.327-7.176-17.327-15.994V28.691h2.354V40.48
		c0,7.518,6.718,13.641,14.976,13.641c8.251,0,14.971-6.123,14.971-13.641V28.691h2.354V40.48z"/>
</g>
<g>
</g>
<g>
</g>
<g>
</g>
<g>
</g>
<g>
</g>
<g>
</g>
<g>
</g>
<g>
</g>
<g>
</g>
<g>
</g>
<g>
</g>
<g>
</g>
<g>
</g>
<g>
</g>
<g>
</g>
</svg>
